<svg id="Layer_1" data-name="Layer 1" xmlns="http://www.w3.org/2000/svg" viewBox="0 0 606 400"><defs><style>.cls-1{fill:#fff;}.cls-2{fill:none;stroke:#fff;stroke-linecap:round;}</style></defs><title>msufcu_logo_white</title><path class="cls-1" d="M30,293.62h3c1.16,0,5.94,0,5.94-4.18,0-1.3-.65-4.26-5.82-4.26H30Zm0-14H32c1.38,0,5.09,0,5.09-3.44,0-1.9-1.21-3.44-4.57-3.44H30Zm-5.89-12.39h6.28c3.54,0,7.06,0,9.82,2.45A8.32,8.32,0,0,1,43,275.65a6.49,6.49,0,0,1-3.58,6.08c2.11.79,5.48,2.55,5.48,7.93a9,9,0,0,1-4,7.58c-2.41,1.68-6.17,1.9-8.22,1.9H24.13Z"/><path class="cls-1" d="M69.52,275.23v23.91H64.26v-2.42h-.08A6.9,6.9,0,0,1,58,299.91a9.53,9.53,0,0,1-8-3.79c-1.77-2.54-1.77-6.42-1.77-8.4V275.23H54v12.19c0,1.94,0,7.23,5,7.23,3.61,0,4.82-3.4,4.82-7.18V275.23Z"/><path class="cls-1" d="M74.2,275.23h5.74v23.91H74.2Zm0-8h5.74v5.25H74.2Z"/><rect class="cls-1" x="84.59" y="267.27" width="5.73" height="31.87"/><path class="cls-1" d="M106.85,294.65c4.31,0,7.07-3.87,7.07-7.49a7.34,7.34,0,0,0-7.07-7.5c-4.26,0-7,4-7,7.32a7.35,7.35,0,0,0,7,7.67m12.36,4.49H114V296.2h-.08c-1.08,1.73-3.57,3.71-7.63,3.71a12.77,12.77,0,0,1,0-25.51,9.16,9.16,0,0,1,7.24,2.94V267.27h5.72Z"/><path class="cls-1" d="M123.3,275.23H129v23.91H123.3Zm0-8H129v5.25H123.3Z"/><path class="cls-1" d="M133.68,275.23H139v2.07a8.91,8.91,0,0,1,6.55-2.9,9.76,9.76,0,0,1,7.19,3.33c2.2,2.62,2.2,6.64,2.2,8.48v12.93h-5.73v-11.8c0-2,0-7.68-4.83-7.68a5,5,0,0,0-3.93,2.12c-1,1.46-1,4-1,6v11.38h-5.73Z"/><path class="cls-1" d="M171.28,279.66a7.11,7.11,0,0,0-7,7.33,7.3,7.3,0,0,0,7.15,7.66c3.45,0,6.84-2.92,6.84-7.71,0-3.4-2.75-7.28-7-7.28M184,275.23v19.51c0,11.5-8.53,14.13-13,14.13A12.59,12.59,0,0,1,159,301h6.55a7.3,7.3,0,0,0,5.9,2.67c3.22,0,7-2.24,7.33-7.46l-.09-.08a9.11,9.11,0,0,1-7.85,3.83,12.67,12.67,0,0,1-12.23-13,12.43,12.43,0,0,1,12.19-12.54,8.64,8.64,0,0,1,7.63,3.75h.09v-2.92Z"/><path class="cls-1" d="M206.29,293.62h1.25c3.2,0,5.26-.22,7.76-1.55a10,10,0,0,0,4.77-8.77,10.52,10.52,0,0,0-3.4-7.85c-2.45-2.25-5.55-2.67-9.25-2.67h-1.13Zm-5.9-26.35h7.23c7.86,0,11.26,2.1,13.1,3.69A16.74,16.74,0,0,1,226,283.3c0,5.71-3,11.22-7.63,13.77-2.92,1.64-7,2.07-10.59,2.07h-7.37Z"/><path class="cls-1" d="M230.54,275.23h5.25v2.11h.09c1.08-1.56,2.15-2.94,5.12-2.94h.48V280c-5.22.21-5.22,4.31-5.22,5.72v13.45h-5.72Z"/><path class="cls-1" d="M261.72,285.13a6.16,6.16,0,0,0-6.46-5.47,6.63,6.63,0,0,0-6.76,5.47Zm-13.05,4.62a6.85,6.85,0,0,0,6.59,4.9,5.86,5.86,0,0,0,5.51-3h6a12.43,12.43,0,0,1-24.16-4.35c0-6.76,5-12.85,12.58-12.85a12.28,12.28,0,0,1,12.35,12.47,13.38,13.38,0,0,1-.34,2.88Z"/><path class="cls-1" d="M282.87,279.66c-4.71,0-7.12,4-7.12,7.64a7.14,7.14,0,0,0,7.12,7.35c3.95,0,7-3.1,7-7.53,0-4.95-3.57-7.46-7-7.46m12.41,19.48H290v-3a11.82,11.82,0,0,1-8.36,3.75C275.5,299.91,270,295,270,287c0-7.33,5.34-12.64,12-12.64a10.09,10.09,0,0,1,7.91,3.85h.1v-3h5.26Z"/><path class="cls-1" d="M299.62,275.23h5.25v2H305c.48-.78,2.11-2.86,6.25-2.86a8.07,8.07,0,0,1,6.88,3.75,8.83,8.83,0,0,1,7.72-3.75,9.22,9.22,0,0,1,7.87,3.71c.95,1.26,1.82,3.54,1.82,7.07v14h-5.73V285.87c0-1.38,0-6.21-4.53-6.21a4.74,4.74,0,0,0-4,2.24c-.9,1.43-.84,3.79-.84,5.31v11.93h-5.74V285.87c0-3.28-1.25-6.21-4.78-6.21-4.58,0-4.58,5-4.58,7.55v11.93h-5.71Z"/><path class="cls-1" d="M349.66,281.73a2.23,2.23,0,0,0-2.29-2.07,2.09,2.09,0,0,0-2.19,2.07c0,1.38,1,1.68,4,2.67s6.68,2.33,6.68,7.15a8.18,8.18,0,0,1-8.35,8.36,9.08,9.08,0,0,1-7.15-3.15,8.69,8.69,0,0,1-1.8-5.16h5.85c.25,1.07.77,3,3.14,3a2.43,2.43,0,0,0,2.59-2.41c0-1.76-1.29-2.19-5.39-3.58-2.72-.9-5.34-2.92-5.34-6.84,0-4.65,4.18-7.42,8-7.42a7.69,7.69,0,0,1,7.8,7.33Z"/><path class="cls-1" d="M420,264.78c-.94,2.49-3,3.73-6.12,3.73l.93-1.83a10.12,10.12,0,0,0-2.76-.34,44.89,44.89,0,0,0-7.72,1.06,31.68,31.68,0,0,0-7.31,2l-2.38,7.66a26.25,26.25,0,0,1-2.47,5.72c-.89,1.45-2.55,4.12-4.94,8a32.83,32.83,0,0,0-3.87,8.66l-3.69-.81q.41-2.29,3.73-7.37c3.06-4.71,5.05-7.95,6-9.69a25.35,25.35,0,0,0,3.1-11.29l-.25.19-12,2.62-5.67,2.37a2,2,0,0,1-1.72-.92,2.64,2.64,0,0,1-.52-2l.88-1.7a6.94,6.94,0,0,1,2.41-.54c.29,0,.73,0,1.32.08s1,.07,1.3.07a55.66,55.66,0,0,0,13.24-1.84l13-3.45a52.65,52.65,0,0,1,12.66-1.88,5.13,5.13,0,0,1,1.68.19,4.24,4.24,0,0,1,1.23,1.21"/><path class="cls-1" d="M430.62,289.78a3.84,3.84,0,0,0-2.44-3.58,9.93,9.93,0,0,0-4.54-1,19.83,19.83,0,0,0-9.08,2.43,16.32,16.32,0,0,0-7.06,6,10.7,10.7,0,0,0,7.91,3.34,28,28,0,0,0,9-1.6c4.1-1.41,6.16-3.31,6.16-5.67m2.65.3c0,3-2.2,5.4-6.58,7.11a28.48,28.48,0,0,1-10.52,1.95c-7.71,0-11.58-1.91-11.58-5.71,0-2.73,2.53-5.35,7.56-7.91q6.74-3.37,11.34-3.38a11.39,11.39,0,0,1,6.74,1.88,7,7,0,0,1,3,6.06"/><path class="cls-1" d="M451.93,285c0-1.07-1-1.61-3-1.61s-4.38.89-6.93,2.62c-2.81,1.9-4.21,3.85-4.21,5.81,0,2.18,2.12,3.25,6.34,3.25a11.21,11.21,0,0,0,3.25-.47c1.51-.47,2.28-1.1,2.28-1.94a3.22,3.22,0,0,0-.23-1,3.64,3.64,0,0,1-.21-.91,12.74,12.74,0,0,1,1.8-3.55,4.65,4.65,0,0,0,.87-2.22m3.09.58a12.31,12.31,0,0,1-1,3.68,6.06,6.06,0,0,0-.48,2,68.14,68.14,0,0,1-.92,12.25c-2,10.48-7.13,15.7-15.6,15.7a17.36,17.36,0,0,1-5.92-1.41c-2.91-1.09-4.36-2.26-4.36-3.53a7.44,7.44,0,0,1,.44-1.74h.49a13.44,13.44,0,0,0,4.26,2.8,12.17,12.17,0,0,0,4.8,1.41c3.91,0,7.16-1.88,9.79-5.61A19.44,19.44,0,0,0,450,299.86a5,5,0,0,0-.58-2.51,4.38,4.38,0,0,0-1.51-.39,4.43,4.43,0,0,0-1,.19,4.66,4.66,0,0,1-1.11.2,31.72,31.72,0,0,1-6.87-.54c-2.92-.71-4.37-2.16-4.37-4.36,0-3.11,1.78-5.86,5.33-8.29a17,17,0,0,1,9.68-3.33c3.66,0,5.47,1.57,5.47,4.74"/><path class="cls-1" d="M473.63,286.63a4.66,4.66,0,0,0-3.53-1.55,5.68,5.68,0,0,0-2.71.64s-.86.49-2.48,1.35a4.48,4.48,0,0,0,4,2.33,5.58,5.58,0,0,0,4.74-2.77m5,9.31c-1,1.06-3.25,1.88-6.87,2.42A51.39,51.39,0,0,1,464,299q-8.19,0-8.2-4.71,0-5.76,8.52-9.87a35.67,35.67,0,0,1,6.17-2.39c2.06.49,3.44.84,4.11,1.08q2.19.72,2.19,3.63c0,1.71-1.12,3.06-3.29,4.07a13.43,13.43,0,0,1-5.63,1.25c-3,0-5.1-.46-6.4-1.34-1.61.77-2.42,1.77-2.42,3,0,2.17,2,3.25,5.91,3.25,1.45,0,3.16-.1,5.09-.29,4.55-.46,7.43-.68,8.61-.68"/><path class="cls-1" d="M501.55,270a5.86,5.86,0,0,1-.82,2.71c-.23.42-1.23,1.8-3,4.12.8.54,1.66,1.08,2.47,1.61a2.82,2.82,0,0,1,1.23,2.51l-.06.53s-.78-.22-2.22-.68a8.1,8.1,0,0,0-2.18-.44c-1.78,0-4.35,1.88-7.68,5.6s-5,6.51-5,8.36q0,2.37,4.27,3.44a24.66,24.66,0,0,0,6.09.68,20,20,0,0,0,2.66-.19c0,.15.12.45.44.87a17,17,0,0,1-6.05,1.16c-7.28,0-10.89-1.78-10.89-5.34q0-3.13,5.46-9.24l4.17-4.65-1.69-.1a8.2,8.2,0,0,0-2.87.58,23.48,23.48,0,0,1-4.15,1.26,2.55,2.55,0,0,1-1.53-.52,1.52,1.52,0,0,1-.72-1.27q0-1.89,4.31-1.89c.31,0,.73,0,1.26.05s1,0,1.27,0a13.17,13.17,0,0,0,6.1-1.26,11.06,11.06,0,0,0,4.22-4.35c.42-.72,1.4-2.73,3-6a1.8,1.8,0,0,1,1.28.88,2.79,2.79,0,0,1,.65,1.55"/><path class="cls-1" d="M532.8,284.16c0,1.48-1,4.07-2.89,7.75S527,298,527,299.14a5.36,5.36,0,0,0,.76,2.72,6.56,6.56,0,0,1-2.72.91c-1.18,0-1.77-.62-1.77-1.85s.93-3.86,2.83-7.72,2.83-6.53,2.83-8c0-.19,0-.48-.09-.91a5.55,5.55,0,0,1-.12-.93A30,30,0,0,0,515,288.77,26,26,0,0,0,505.46,300a25.34,25.34,0,0,0-3.2-.82q.25-1.08,3.35-5.19,1.13-1.41,6.15-8.09c2.45-3.27,4-5.44,4.65-6.54.19-.33,1.17-2.56,2.92-6.73,1.26-3,2.43-4.95,3.48-5.91.4.21.78.46,1.2.72a1.18,1.18,0,0,1,.64,1.07q0,.72-8.18,17.2c2.72-1.2,5.07-2.21,7.12-3.06,3.87-1.62,6.07-2.42,6.59-2.42a1.91,1.91,0,0,1,1.31.43,4.82,4.82,0,0,1,1.31,3.54"/><path class="cls-1" d="M551.11,286.63a4.7,4.7,0,0,0-3.54-1.55,5.61,5.61,0,0,0-2.7.64s-.86.49-2.47,1.35a4.45,4.45,0,0,0,4,2.33,5.62,5.62,0,0,0,4.75-2.77m5,9.31c-1,1.06-3.28,1.88-6.9,2.42a51.39,51.39,0,0,1-7.79.59q-8.19,0-8.2-4.71,0-5.76,8.54-9.87a36.76,36.76,0,0,1,6.15-2.39c2.07.49,3.44.84,4.11,1.08,1.47.48,2.19,1.69,2.19,3.63,0,1.71-1.09,3.06-3.29,4.07a13.43,13.43,0,0,1-5.63,1.25c-3,0-5.1-.46-6.39-1.34-1.61.77-2.42,1.77-2.42,3q0,3.25,5.92,3.25c1.46,0,3.14-.1,5.07-.29,4.55-.46,7.43-.68,8.64-.68"/><path class="cls-1" d="M577.51,288l-7.6-2.47c-1.88,0-3.52,1.28-4.94,3.83a49.33,49.33,0,0,0-2.6,6.17q-1.82,4.88-5.85,4.87a15.12,15.12,0,0,1,2.53-5.48,21.91,21.91,0,0,0,3-5.56,25.72,25.72,0,0,0,.54-4.94,9,9,0,0,1,.69-3c.57-1.45,1.24-2.21,2-2.28l.92.05.5,3.3c.23.84,1,1.26,2.28,1.26h1.64c.29,0,.52,0,.67,0,3.72-.07,5.83,1.37,6.3,4.31"/><path class="cls-2" d="M388.66,312.29c67.8-13.9,133.86-7,168.61,0"/><polygon class="cls-1" points="66.4 99.05 183.62 99.05 189.68 82.37 71.96 82.37 66.4 99.05"/><polygon class="cls-1" points="196.76 99.55 272.04 99.05 276.71 83.25 201.93 82.74 196.76 99.55"/><polygon class="cls-1" points="158.5 210.18 233.76 209.68 238.44 193.9 163.66 193.39 158.5 210.18"/><polygon class="cls-1" points="246.52 210.5 326.08 210.69 332.16 194.01 251.72 193.71 246.52 210.5"/><polygon class="cls-1" points="28.01 210.69 63.86 107.63 98.25 107.63 62.36 211.2 28.01 210.69"/><polygon class="cls-1" points="70.27 210.69 106.12 107.63 140.48 107.63 104.61 211.2 70.27 210.69"/><polygon class="cls-1" points="111.5 210.69 147.37 107.63 181.73 107.63 145.85 211.2 111.5 210.69"/><polygon class="cls-1" points="253.97 185.06 289.84 82 324.21 82 288.32 185.56 253.97 185.06"/><polygon class="cls-1" points="300.39 185.06 336.26 82 370.6 82 334.75 185.56 300.39 185.06"/><polygon class="cls-1" points="208.25 185.5 226.31 133.02 260.65 133.02 242.61 186 208.25 185.5"/><polygon class="cls-1" points="175.34 160.43 193.4 107.93 227.76 107.93 209.7 160.94 175.34 160.43"/><polygon class="cls-1" points="27.23 227.38 27.23 232.04 34.39 232.04 34.39 234.82 27.23 234.82 27.23 244.04 24 244.04 24 224.62 34.65 224.62 34.65 227.38 27.23 227.38"/><polygon class="cls-1" points="56.01 227.38 56.01 232.04 64.29 232.04 64.29 234.82 56.01 234.82 56.01 241.29 64.56 241.29 64.56 244.04 52.81 244.04 52.81 224.62 64.56 224.62 64.56 227.38 56.01 227.38"/><path class="cls-1" d="M81.1,244h4.4c3.83,0,5.69-.42,7.84-1.85a9.43,9.43,0,0,0,.16-15.69c-2.1-1.35-4.24-1.89-7.93-1.89H81.1Zm3.22-2.75V227.38h1.44c2.6,0,4.3.4,5.71,1.36a6.62,6.62,0,0,1,2.92,5.59,6.55,6.55,0,0,1-2.92,5.56,9.47,9.47,0,0,1-5.71,1.4Z"/><polygon class="cls-1" points="117.65 227.38 117.65 232.04 125.94 232.04 125.94 234.82 117.65 234.82 117.65 241.29 126.2 241.29 126.2 244.04 114.45 244.04 114.45 224.62 126.2 224.62 126.2 227.38 117.65 227.38"/><path class="cls-1" d="M151,235.78a5.55,5.55,0,0,0,4.74-5.47,5.4,5.4,0,0,0-2.56-4.58c-1.34-.78-2.89-1.12-5.67-1.12h-3.76V244H147v-7.95h.57l6.12,7.95h3.92Zm-4-2.22v-6.18h1.15c2.93,0,4.47,1,4.47,3s-1.6,3.19-4.59,3.19Z"/><path class="cls-1" d="M184.54,239.31,186.8,244h3.52l-10.19-20.65L169.57,244H173l2.4-4.73Zm-1.3-2.75h-6.47l3.3-6.57Z"/><polygon class="cls-1" points="209.6 240.78 215.89 240.78 215.89 243.53 206.39 243.53 206.39 224.1 209.6 224.1 209.6 240.78"/><path class="cls-1" d="M266.12,230.13a8.89,8.89,0,0,0-5.79-2.14,7.58,7.58,0,0,0-7.82,7.41c0,4.14,3.43,7.28,7.95,7.28a8.75,8.75,0,0,0,5.66-2.21V244a12,12,0,0,1-5.72,1.44c-6.26,0-11.1-4.4-11.1-10.12,0-5.45,5.09-10.05,11.1-10.05a10.77,10.77,0,0,1,5.72,1.42Z"/><path class="cls-1" d="M288.91,235.78a5.54,5.54,0,0,0,4.74-5.47,5.38,5.38,0,0,0-2.57-4.58c-1.34-.78-2.88-1.12-5.65-1.12h-3.76V244h3.22v-7.95h.57l6.11,7.95h3.94Zm-4-2.22v-6.18H286c2.93,0,4.47,1,4.47,3s-1.6,3.19-4.6,3.19Z"/><polygon class="cls-1" points="314.7 227.38 314.7 232.04 322.99 232.04 322.99 234.82 314.7 234.82 314.7 241.29 323.24 241.29 323.24 244.04 311.48 244.04 311.48 224.62 323.24 224.62 323.24 227.38 314.7 227.38"/><path class="cls-1" d="M340.78,244h4.42c3.81,0,5.67-.42,7.82-1.85a9.43,9.43,0,0,0,.16-15.69c-2.08-1.35-4.22-1.89-7.93-1.89h-4.47Zm3.2-2.75V227.38h1.46a9.7,9.7,0,0,1,5.73,1.36,6.66,6.66,0,0,1,2.91,5.59,6.59,6.59,0,0,1-2.91,5.56,9.54,9.54,0,0,1-5.73,1.4Z"/><rect class="cls-1" x="373.11" y="224.1" width="3.23" height="19.43"/><polygon class="cls-1" points="401.71 244.04 398.5 244.04 398.5 227.38 393.58 227.38 393.58 224.61 406.62 224.61 406.62 227.38 401.71 227.38 401.71 244.04"/><path class="cls-1" d="M442.52,236.83a5.92,5.92,0,0,0,.65,3.36,5,5,0,0,0,8,0,5.9,5.9,0,0,0,.66-3.36V225.12h3.22v12.51c0,4.21-3.35,7.29-7.87,7.29s-7.9-3.08-7.9-7.29V225.12h3.23Z"/><polygon class="cls-1" points="472.52 223.32 484.22 238.11 484.22 224.64 486.7 224.64 486.7 245.24 475 230.44 475 244.04 472.52 244.04 472.52 223.32"/><polygon class="cls-1" points="559.94 222.82 571.64 237.6 571.64 224.13 574.09 224.13 574.09 244.74 562.38 229.95 562.38 243.53 559.94 243.53 559.94 222.82"/><rect class="cls-1" x="503.95" y="224.61" width="3.24" height="19.43"/><path class="cls-1" d="M533.9,224.25c-4.52,0-8.16,4.53-8.16,10.15s3.6,10,8.16,10,8.07-4.52,8.07-10.07-3.64-10.09-8.07-10.09m0,2.73c3.26,0,5.75,3.19,5.75,7.4,0,4-2.57,7.29-5.75,7.29s-5.78-3.2-5.78-7.29,2.53-7.4,5.78-7.4"/><polygon class="cls-1" points="383.97 122.78 391.09 82.43 407.12 82.43 409.8 107.63 421.38 82.43 437.39 82.43 430.29 122.78 418.38 122.78 420.54 110.47 421.8 104.21 423.77 96.92 423.66 96.92 411.74 122.78 402.51 122.78 399.73 96.92 399.61 96.92 399.13 102.87 398.31 109.14 395.89 122.78 383.97 122.78"/><path class="cls-1" d="M402.06,136a36.22,36.22,0,0,0-13.29-.36c-2.84.68-2.74,1.51-3.06,2.94-1.13,5.11,16,2.92,14.67,16.75-.94,9.46-8.54,11.75-15.36,12.13-8.46.46-16.29-1.53-16.29-2.48l1.87-7.38a18.41,18.41,0,0,0,4.18,1.12,40.17,40.17,0,0,0,6.62.39c3.31,0,7.43-2,7.77-4,1.08-6.07-14.58-4.35-14.78-16.07-.09-6.42,7.14-12.32,17.25-12.15,8.57.16,12.32,1.51,12.32,1.51Z"/><path class="cls-1" d="M363.61,171.22l10.59.38-5.29,24.61c-.71,4,.74,8.18,4.56,8,4.76-.22,6.42-2.06,7.55-8l5.13-24.61,10.8-.19-3.45,23.47c-2.41,13.1-11.33,17.45-22.68,17.45-7.59,0-14.23-8.34-12.52-17.43Z"/><polygon class="cls-1" points="435.67 122.28 439.72 96.07 447.25 96.07 443.19 122.28 435.67 122.28"/><path class="cls-1" d="M472.6,102.2c0-.75-8.71-1-11.27-.38s-4.66,2.56-5.45,7.62c-.57,3.66,1.75,6.7,3.43,7.12,2.3.54,7.54,1.44,10,.1l.19,5.48c-.39,1.34-6.74,1.15-11,.81a11.7,11.7,0,0,1-10.08-13.81c1.31-8.45,7.88-14.27,14.3-14.27,7.06,0,10.81,1.7,10.81,1.7Z"/><polygon class="cls-1" points="472.8 122.28 476.85 96.07 484.38 96.07 483 104.94 490.17 104.94 491.54 96.07 499.07 96.07 495.01 122.28 487.45 122.28 489.03 112.14 481.89 112.14 480.32 122.28 472.8 122.28"/><polygon class="cls-1" points="498.55 122.28 502.61 96.07 510.13 96.07 506.09 122.28 498.55 122.28"/><path class="cls-1" d="M531.85,117.79a19.62,19.62,0,0,1-4.16,4.55c-1.15.76-4.17.76-7.58.61-5.88-.27-10.5-4.32-9.06-13.43,1.29-8.35,6.77-14.09,14.25-14.09,5.54,0,6.74.38,8.44,1.72l-.94,5.29a37.57,37.57,0,0,0-8.65-.62c-3,0-4.87,3.05-5.57,7.67-.58,3.7-.08,7.07,3.75,7.07a5,5,0,0,0,4.34-3h-3.34l.9-5.7h10.32Z"/><path class="cls-1" d="M540.87,122l1.39-3.44,10,.07.34,3.47h7.53l-4.19-26.19h-7.69L533.48,122Zm10.68-10.07h-5.31l4.55-8.35Z"/><polygon class="cls-1" points="580.57 110.4 581.21 104.41 582.49 96.07 589.75 96.07 585.67 122.28 578.58 122.28 572.63 108.02 572 114.01 570.7 122.28 563.48 122.28 567.54 96.07 574.62 96.07 580.57 110.4"/><polygon class="cls-1" points="413.59 199.81 414.18 193.84 415.37 185.51 422.04 185.51 418.3 211.69 411.79 211.69 406.27 197.42 405.7 203.42 404.51 211.69 397.85 211.69 401.6 185.51 408.11 185.51 413.59 199.81"/><polygon class="cls-1" points="422.58 211.69 426.32 185.52 433.29 185.52 429.54 211.69 422.58 211.69"/><polygon class="cls-1" points="436.23 185.51 443.23 185.51 444.45 202.95 450.81 185.51 457.82 185.51 446.7 211.69 439.72 211.69 436.23 185.51"/><polygon class="cls-1" points="456.98 211.69 460.71 185.52 478 185.52 477.14 191.61 466.8 191.61 466.24 195.38 475 195.38 474.13 201.47 465.4 201.47 464.79 205.59 475.55 205.59 474.67 211.69 456.98 211.69"/><path class="cls-1" d="M488.19,202.57c3.25,0,3.56,1.11,3.06,4.55a20.62,20.62,0,0,0-.28,4.57l9.43-.1.1-.83c-.8,0-1.36-1-.86-4.49.76-5.27-2.11-5.88-4.2-6.89,2.61-.84,4.05-3.38,4.48-6.41.73-5.09-1.28-7.46-8.35-7.46h-10l-3.73,26.18h7l1.27-9.12Zm-.56-11h3.26a2.19,2.19,0,0,1,2.41,2.75c-.26,1.81-1.51,2.48-3.66,2.48H486.9Z"/><path class="cls-1" d="M523.25,191.36c-.88-.81-5.55-1.44-6.57-1.57a17.78,17.78,0,0,0-4.35.19c-1.34.57-2.49,1.77-2.47,2.71.08,4.09,13.12,1.41,11.74,10.93-.84,6.09-6.55,8.74-12.38,8.74-5.61,0-7.51-1.16-7.51-1.16l.77-5.31c0,.94,7.3.47,8,.47,1.74,0,3-.7,3.15-2,.58-3.95-12-1.24-10.6-11.2.78-5.56,5.09-8.36,10.4-8.36a50,50,0,0,1,10.8,1.22Z"/><polygon class="cls-1" points="522.42 211.69 526.18 185.52 533.13 185.52 529.4 211.69 522.42 211.69"/><polygon class="cls-1" points="536.31 185.51 555.76 185.51 554.8 192.38 548.54 192.38 545.76 211.69 538.84 211.69 541.6 192.38 535.35 192.38 536.31 185.51"/><polygon class="cls-1" points="568.78 211.75 561.03 212.14 561.98 202.09 556.47 185.43 564.53 185.51 567.65 195.66 574.58 186 583.37 186 570.68 202.12 568.78 211.75"/><polygon class="cls-1" points="403.53 140.04 421.04 140.04 420.16 146.92 414.53 146.92 412.04 166.23 405.79 166.23 408.29 146.92 402.64 146.92 403.53 140.04"/><path class="cls-1" d="M419.75,166.49l2.4-3.8,10.19.1.3,3.44h6.24l-3.48-26.18H429l-15.39,26.44Zm12.24-10-5.48-.2,4.64-8.31Z"/><polygon class="cls-1" points="443.36 140.04 460.88 140.04 459.98 146.92 454.38 146.92 451.88 166.23 445.62 166.23 448.11 146.92 442.48 146.92 443.36 140.04"/><polygon class="cls-1" points="460.38 166.23 463.76 140.04 479.32 140.04 478.56 146.16 469.23 146.16 468.73 149.9 476.64 149.9 475.86 156 467.95 156 467.42 160.13 477.12 160.13 476.34 166.23 460.38 166.23"/><path class="cls-1" d="M580.88,204v-2.36h1.77c.72,0,1.85-.1,1.85,1.08S583.89,204,583,204Zm3,1.3a2,2,0,0,0,2.1-2.36c0-2-1-2.64-3-2.64h-3.74v8.66h1.63v-3.66h1.29l1.72,3.66h1.87Zm-1.69,7.34c3.95,0,7.17-3.61,7.17-8s-3.22-8-7.17-8-7.14,3.6-7.14,8,3.16,8,7.14,8m0-1.91c-3.12,0-5.26-2.55-5.26-6.13s2.14-6.13,5.26-6.13,5.29,2.55,5.29,6.13-2.22,6.13-5.29,6.13"/></svg>