<?xml version="1.0" encoding="utf-8"?>
<!-- Generator: Adobe Illustrator 22.0.1, SVG Export Plug-In . SVG Version: 6.00 Build 0)  -->
<svg version="1.1" id="Layer_1" xmlns="http://www.w3.org/2000/svg" xmlns:xlink="http://www.w3.org/1999/xlink" x="0px" y="0px"
	 viewBox="0 0 606 400" style="enable-background:new 0 0 606 400;" xml:space="preserve">
<style type="text/css">
	.st0{fill:#004F39;}
	.st1{fill:none;stroke:#004F39;stroke-width:2;stroke-miterlimit:10;}
</style>
<g>
	<path class="st0" d="M30,293.6h3c1.2,0,5.9,0,5.9-4.2c0-1.3-0.7-4.3-5.8-4.3H30V293.6z M30,279.7H32c1.4,0,5.1,0,5.1-3.4
		c0-1.9-1.2-3.4-4.6-3.4H30V279.7z M24.1,267.3h6.3c3.5,0,7.1,0,9.8,2.4c1.6,1.4,2.7,3.7,2.7,5.9c0,4-2.6,5.5-3.6,6.1
		c2.1,0.8,5.5,2.5,5.5,7.9c0,3.8-2,6.2-4,7.6c-2.4,1.7-6.2,1.9-8.2,1.9h-8.5V267.3z"/>
	<path class="st0" d="M69.5,275.2v23.9h-5.3v-2.4h-0.1c-0.9,1.3-2.5,3.2-6.2,3.2c-4.4,0-6.8-2.2-8-3.8c-1.8-2.5-1.8-6.4-1.8-8.4
		v-12.5H54v12.2c0,1.9,0,7.2,5,7.2c3.6,0,4.8-3.4,4.8-7.2v-12.2H69.5z"/>
	<path class="st0" d="M74.2,275.2h5.7v23.9h-5.7V275.2z M74.2,267.3h5.7v5.3h-5.7V267.3z"/>
	<rect x="84.6" y="267.3" class="st0" width="5.7" height="31.9"/>
	<path class="st0" d="M106.8,294.7c4.3,0,7.1-3.9,7.1-7.5c0-3.9-3-7.5-7.1-7.5c-4.3,0-7.1,4-7.1,7.3
		C99.8,291.4,103.1,294.7,106.8,294.7 M119.2,299.1H114v-2.9h-0.1c-1.1,1.7-3.6,3.7-7.6,3.7c-6.1,0-12.2-5-12.2-12.7
		c0-8.1,6.5-12.8,12.2-12.8c3.5,0,5.6,1.2,7.2,2.9v-10.1h5.7V299.1z"/>
	<path class="st0" d="M123.3,275.2h5.7v23.9h-5.7V275.2z M123.3,267.3h5.7v5.3h-5.7V267.3z"/>
	<path class="st0" d="M133.7,275.2h5.3v2.1c0.9-0.9,2.9-2.9,6.5-2.9c2.1,0,5.2,0.9,7.2,3.3c2.2,2.6,2.2,6.6,2.2,8.5v12.9h-5.7v-11.8
		c0-2,0-7.7-4.8-7.7c-1,0-2.9,0.5-3.9,2.1c-1,1.5-1,4-1,6v11.4h-5.7V275.2z"/>
	<path class="st0" d="M171.3,279.7c-3.5,0-7,2.8-7,7.3c0,4.9,3.7,7.7,7.2,7.7c3.4,0,6.8-2.9,6.8-7.7
		C178.3,283.5,175.5,279.7,171.3,279.7 M184,275.2v19.5c0,11.5-8.5,14.1-13.1,14.1c-4.9,0-10-2.6-12-7.9h6.5c2.2,2.7,5,2.7,5.9,2.7
		c3.2,0,7-2.2,7.3-7.5l-0.1-0.1c-0.8,1.1-3,3.8-7.8,3.8c-5.8,0-12.2-5-12.2-13c0-7.5,6.1-12.5,12.2-12.5c4.9,0,7,2.8,7.6,3.7h0.1
		v-2.9H184z"/>
	<path class="st0" d="M206.3,293.6h1.2c3.2,0,5.3-0.2,7.8-1.6c3.1-1.7,4.8-5.4,4.8-8.8c0-3.1-1.3-6-3.4-7.9
		c-2.4-2.2-5.6-2.7-9.3-2.7h-1.1V293.6z M200.4,267.3h7.2c7.9,0,11.3,2.1,13.1,3.7c3,2.6,5.3,7.3,5.3,12.3c0,5.7-3,11.2-7.6,13.8
		c-2.9,1.6-7,2.1-10.6,2.1h-7.4V267.3z"/>
	<path class="st0" d="M230.5,275.2h5.3v2.1h0.1c1.1-1.6,2.2-2.9,5.1-2.9h0.5v5.6c-5.2,0.2-5.2,4.3-5.2,5.7v13.4h-5.7V275.2z"/>
	<path class="st0" d="M261.7,285.1c-0.6-3.8-3.4-5.5-6.5-5.5c-2.3,0-5.7,1-6.8,5.5H261.7z M248.7,289.7c0.3,1.5,2.5,4.9,6.6,4.9
		c2.5,0,4.4-1.1,5.5-3.1h6c-1.4,4.3-5.9,8.3-11.5,8.3c-7.3,0-12.6-5.7-12.6-12.7c0-6.8,5-12.8,12.6-12.8c7.8,0,12.4,6.4,12.4,12.5
		c0,1.1-0.2,2.1-0.3,2.9H248.7z"/>
	<path class="st0" d="M282.9,279.7c-4.7,0-7.1,4-7.1,7.6c0,4.1,3,7.4,7.1,7.4c4,0,7-3.1,7-7.5C289.8,282.2,286.3,279.7,282.9,279.7
		 M295.3,299.1H290v-3c-1.8,2.2-5.4,3.7-8.4,3.7c-6.2,0-11.6-4.9-11.6-12.9c0-7.3,5.3-12.6,12-12.6c4.9,0,7.8,3.5,7.9,3.8h0.1v-3
		h5.3V299.1z"/>
	<path class="st0" d="M299.6,275.2h5.2v2h0.1c0.5-0.8,2.1-2.9,6.3-2.9c1.3,0,4.6,0.3,6.9,3.7c2.5-3.6,6-3.7,7.7-3.7
		c4.7,0,7,2.5,7.9,3.7c0.9,1.3,1.8,3.5,1.8,7.1v14h-5.7v-13.3c0-1.4,0-6.2-4.5-6.2c-1.6,0-3.1,0.9-4,2.2c-0.9,1.4-0.8,3.8-0.8,5.3
		v11.9h-5.7v-13.3c0-3.3-1.2-6.2-4.8-6.2c-4.6,0-4.6,5-4.6,7.5v11.9h-5.7V275.2z"/>
	<path class="st0" d="M349.7,281.7c-0.4-1.9-1.7-2.1-2.3-2.1c-1.4,0-2.2,1.1-2.2,2.1c0,1.4,1,1.7,4,2.7c3,0.9,6.7,2.3,6.7,7.1
		c0,5.4-4.3,8.4-8.4,8.4c-2.4,0-5.3-0.8-7.1-3.2c-1.5-1.8-1.7-3.7-1.8-5.2h5.9c0.3,1.1,0.8,3.1,3.1,3.1c1.9,0,2.6-1.4,2.6-2.4
		c0-1.8-1.3-2.2-5.4-3.6c-2.7-0.9-5.3-2.9-5.3-6.8c0-4.6,4.2-7.4,8-7.4c3.6,0,7.6,2.6,7.8,7.3H349.7z"/>
	<path class="st0" d="M420,264.8c-0.9,2.5-3,3.7-6.1,3.7l0.9-1.8c-0.8-0.2-1.7-0.3-2.8-0.3c-1.6,0-4.1,0.4-7.7,1.1
		c-3.8,0.7-6.2,1.4-7.3,2l-2.4,7.7c-0.8,2.4-1.6,4.3-2.5,5.7c-0.9,1.4-2.5,4.1-4.9,8c-1.8,2.9-3.1,5.8-3.9,8.7l-3.7-0.8
		c0.3-1.5,1.5-4,3.7-7.4c3.1-4.7,5.1-7.9,6-9.7c2.1-4.1,3.1-7.9,3.1-11.3l-0.3,0.2l-12,2.6c-1.9,0.8-3.8,1.6-5.7,2.4
		c-0.7,0-1.3-0.3-1.7-0.9c-0.4-0.6-0.6-1.3-0.5-2l0.9-1.7c0.9-0.4,1.7-0.5,2.4-0.5c0.3,0,0.7,0,1.3,0.1c0.6,0,1,0.1,1.3,0.1
		c3.9,0,8.3-0.6,13.2-1.8c2.9-0.8,7.2-1.9,13-3.4c4.9-1.3,9.1-1.9,12.7-1.9c0.8,0,1.4,0.1,1.7,0.2C419,263.7,419.4,264.1,420,264.8"
		/>
	<path class="st0" d="M430.6,289.8c0-1.6-0.8-2.8-2.4-3.6c-1.3-0.7-2.8-1-4.5-1c-2.9,0-5.9,0.8-9.1,2.4c-3.3,1.6-5.7,3.7-7.1,6
		c2.2,2.2,4.8,3.3,7.9,3.3c2.9,0,6-0.5,9.1-1.6C428.6,294,430.6,292.1,430.6,289.8 M433.3,290.1c0,3-2.2,5.4-6.6,7.1
		c-3.3,1.3-6.8,1.9-10.5,1.9c-7.7,0-11.6-1.9-11.6-5.7c0-2.7,2.5-5.3,7.6-7.9c4.5-2.3,8.3-3.4,11.3-3.4c2.7,0,5,0.6,6.7,1.9
		C432.3,285.4,433.3,287.5,433.3,290.1"/>
	<path class="st0" d="M451.9,285c0-1.1-1-1.6-3-1.6c-2.1,0-4.4,0.9-6.9,2.6c-2.8,1.9-4.2,3.9-4.2,5.8c0,2.2,2.1,3.2,6.3,3.2
		c1.1,0,2.2-0.2,3.3-0.5c1.5-0.5,2.3-1.1,2.3-1.9c0-0.2-0.1-0.6-0.2-1c-0.1-0.4-0.2-0.7-0.2-0.9c0-0.4,0.6-1.6,1.8-3.5
		C451.6,286.3,451.9,285.5,451.9,285 M455,285.6c0,0.7-0.3,1.9-1,3.7c-0.3,0.8-0.5,1.5-0.5,2c0,4.9-0.3,9-0.9,12.3
		c-2,10.5-7.1,15.7-15.6,15.7c-1.5,0-3.5-0.5-5.9-1.4c-2.9-1.1-4.4-2.3-4.4-3.5c0-0.3,0.1-0.9,0.4-1.7h0.5c0.8,0.9,2.3,1.9,4.3,2.8
		c2,0.9,3.6,1.4,4.8,1.4c3.9,0,7.2-1.9,9.8-5.6c2.3-3.4,3.5-7.1,3.5-11.2c0-1-0.2-1.8-0.6-2.5c-0.6-0.3-1.1-0.4-1.5-0.4
		c-0.2,0-0.5,0.1-1,0.2c-0.5,0.1-0.8,0.2-1.1,0.2c-3.1,0-5.4-0.2-6.9-0.5c-2.9-0.7-4.4-2.2-4.4-4.4c0-3.1,1.8-5.9,5.3-8.3
		c3.2-2.2,6.5-3.3,9.7-3.3C453.2,280.8,455,282.4,455,285.6"/>
	<path class="st0" d="M473.6,286.6c-1-1-2.1-1.6-3.5-1.6c-1,0-1.9,0.2-2.7,0.6c0,0-0.9,0.5-2.5,1.4c1,1.6,2.3,2.3,4,2.3
		C470.8,289.4,472.4,288.5,473.6,286.6 M478.6,295.9c-1,1.1-3.3,1.9-6.9,2.4c-2.5,0.4-5.2,0.6-7.8,0.6c-5.5,0-8.2-1.6-8.2-4.7
		c0-3.8,2.8-7.1,8.5-9.9c2-1,4-1.8,6.2-2.4c2.1,0.5,3.4,0.8,4.1,1.1c1.5,0.5,2.2,1.7,2.2,3.6c0,1.7-1.1,3.1-3.3,4.1
		c-1.8,0.8-3.7,1.3-5.6,1.3c-3,0-5.1-0.5-6.4-1.3c-1.6,0.8-2.4,1.8-2.4,3c0,2.2,2,3.2,5.9,3.2c1.5,0,3.2-0.1,5.1-0.3
		C474.6,296.2,477.4,295.9,478.6,295.9"/>
	<path class="st0" d="M501.6,270c0,0.8-0.3,1.7-0.8,2.7c-0.2,0.4-1.2,1.8-3,4.1c0.8,0.5,1.7,1.1,2.5,1.6c0.9,0.7,1.3,1.6,1.2,2.5
		l-0.1,0.5c0,0-0.8-0.2-2.2-0.7c-0.9-0.3-1.7-0.4-2.2-0.4c-1.8,0-4.3,1.9-7.7,5.6c-3.4,3.7-5,6.5-5,8.4c0,1.6,1.4,2.7,4.3,3.4
		c1.8,0.5,3.8,0.7,6.1,0.7c0.9,0,1.8-0.1,2.7-0.2c0,0.2,0.1,0.5,0.4,0.9c-2,0.8-4.1,1.2-6.1,1.2c-7.3,0-10.9-1.8-10.9-5.3
		c0-2.1,1.8-5.2,5.5-9.2l4.2-4.6l-1.7-0.1c-0.7,0-1.7,0.2-2.9,0.6c-2.4,0.8-3.8,1.3-4.2,1.3c-0.6,0-1.1-0.2-1.5-0.5
		c-0.5-0.3-0.7-0.8-0.7-1.3c0-1.3,1.4-1.9,4.3-1.9c0.3,0,0.7,0,1.3,0c0.6,0,1,0,1.3,0c2.5,0,4.5-0.4,6.1-1.3c1.6-0.8,3-2.3,4.2-4.4
		c0.4-0.7,1.4-2.7,3-6c0.4,0,0.8,0.3,1.3,0.9C501.3,269,501.6,269.6,501.6,270"/>
	<path class="st0" d="M532.8,284.2c0,1.5-1,4.1-2.9,7.7c-1.9,3.7-2.9,6.1-2.9,7.2c0,0.9,0.3,1.8,0.8,2.7c-1.2,0.6-2.1,0.9-2.7,0.9
		c-1.2,0-1.8-0.6-1.8-1.8c0-1.3,0.9-3.9,2.8-7.7c1.9-3.9,2.8-6.5,2.8-8c0-0.2,0-0.5-0.1-0.9c-0.1-0.4-0.1-0.7-0.1-0.9
		c-4.7,0.6-9.3,2.4-13.7,5.4c-4.6,3.2-7.8,6.9-9.6,11.2c-0.7-0.3-1.8-0.5-3.2-0.8c0.2-0.7,1.3-2.4,3.3-5.2c0.8-0.9,2.8-3.6,6.1-8.1
		c2.5-3.3,4-5.4,4.7-6.5c0.2-0.3,1.2-2.6,2.9-6.7c1.3-3,2.4-5,3.5-5.9c0.4,0.2,0.8,0.5,1.2,0.7c0.4,0.3,0.6,0.6,0.6,1.1
		c0,0.5-2.7,6.2-8.2,17.2c2.7-1.2,5.1-2.2,7.1-3.1c3.9-1.6,6.1-2.4,6.6-2.4c0.6,0,1,0.2,1.3,0.4
		C532.4,281.5,532.8,282.7,532.8,284.2"/>
	<path class="st0" d="M551.1,286.6c-1-1-2.1-1.6-3.5-1.6c-1,0-1.9,0.2-2.7,0.6c0,0-0.9,0.5-2.5,1.4c1,1.6,2.3,2.3,4,2.3
		C548.3,289.4,549.8,288.5,551.1,286.6 M556.1,295.9c-1,1.1-3.3,1.9-6.9,2.4c-2.5,0.4-5.1,0.6-7.8,0.6c-5.5,0-8.2-1.6-8.2-4.7
		c0-3.8,2.8-7.1,8.5-9.9c2-1,4-1.8,6.1-2.4c2.1,0.5,3.4,0.8,4.1,1.1c1.5,0.5,2.2,1.7,2.2,3.6c0,1.7-1.1,3.1-3.3,4.1
		c-1.8,0.8-3.7,1.3-5.6,1.3c-3,0-5.1-0.5-6.4-1.3c-1.6,0.8-2.4,1.8-2.4,3c0,2.2,2,3.2,5.9,3.2c1.5,0,3.1-0.1,5.1-0.3
		C552,296.2,554.9,295.9,556.1,295.9"/>
	<path class="st0" d="M577.5,288l-7.6-2.5c-1.9,0-3.5,1.3-4.9,3.8c-0.5,0.9-1.4,2.9-2.6,6.2c-1.2,3.2-3.2,4.9-5.8,4.9
		c0.2-1.3,1-3.1,2.5-5.5c1.7-2.5,2.6-4.4,2.9-5.6c0.3-1,0.4-2.7,0.5-4.9c0-1,0.3-2,0.7-3c0.6-1.5,1.2-2.2,2-2.3l0.9,0l0.5,3.3
		c0.2,0.8,1,1.3,2.3,1.3h1.6c0.3,0,0.5,0,0.7,0C574.9,283.7,577,285.1,577.5,288"/>
	<path class="st1" d="M388.7,312.3c67.8-13.9,133.9-7,168.6,0"/>
	<polygon class="st0" points="66.4,99 183.6,99 189.7,82.4 72,82.4 	"/>
	<polygon class="st0" points="196.8,99.6 272,99 276.7,83.2 201.9,82.7 	"/>
	<polygon class="st0" points="158.5,210.2 233.8,209.7 238.4,193.9 163.7,193.4 	"/>
	<polygon class="st0" points="246.5,210.5 326.1,210.7 332.2,194 251.7,193.7 	"/>
	<polygon class="st0" points="28,210.7 63.9,107.6 98.2,107.6 62.4,211.2 	"/>
	<polygon class="st0" points="70.3,210.7 106.1,107.6 140.5,107.6 104.6,211.2 	"/>
	<polygon class="st0" points="111.5,210.7 147.4,107.6 181.7,107.6 145.9,211.2 	"/>
	<polygon class="st0" points="254,185.1 289.8,82 324.2,82 288.3,185.6 	"/>
	<polygon class="st0" points="300.4,185.1 336.3,82 370.6,82 334.7,185.6 	"/>
	<polygon class="st0" points="208.3,185.5 226.3,133 260.7,133 242.6,186 	"/>
	<g>
		<polygon class="st0" points="175.3,160.4 193.4,107.9 227.8,107.9 209.7,160.9 		"/>
		<polygon class="st0" points="27.2,227.4 27.2,232 34.4,232 34.4,234.8 27.2,234.8 27.2,244 24,244 24,224.6 34.6,224.6 
			34.6,227.4 		"/>
	</g>
	<polygon class="st0" points="56,227.4 56,232 64.3,232 64.3,234.8 56,234.8 56,241.3 64.6,241.3 64.6,244 52.8,244 52.8,224.6 
		64.6,224.6 64.6,227.4 	"/>
	<path class="st0" d="M81.1,244h4.4c3.8,0,5.7-0.4,7.8-1.8c2.8-1.8,4.3-4.5,4.3-7.8c0-3.3-1.4-6.1-4.1-7.9c-2.1-1.4-4.2-1.9-7.9-1.9
		h-4.5V244z M84.3,241.3v-13.9h1.4c2.6,0,4.3,0.4,5.7,1.4c1.8,1.2,2.9,3.3,2.9,5.6c0,2.3-1,4.3-2.9,5.6c-1.5,1-3.1,1.4-5.7,1.4H84.3
		z"/>
	<polygon class="st0" points="117.6,227.4 117.6,232 125.9,232 125.9,234.8 117.6,234.8 117.6,241.3 126.2,241.3 126.2,244 
		114.4,244 114.4,224.6 126.2,224.6 126.2,227.4 	"/>
	<path class="st0" d="M151,235.8c2.8-0.6,4.7-2.7,4.7-5.5c0-1.8-1-3.6-2.6-4.6c-1.3-0.8-2.9-1.1-5.7-1.1h-3.8V244h3.2v-7.9h0.6
		l6.1,7.9h3.9L151,235.8z M147,233.6v-6.2h1.2c2.9,0,4.5,1,4.5,3c0,2.1-1.6,3.2-4.6,3.2H147z"/>
	<path class="st0" d="M184.5,239.3l2.3,4.7h3.5l-10.2-20.6L169.6,244h3.5l2.4-4.7H184.5z M183.2,236.6h-6.5l3.3-6.6L183.2,236.6z"/>
	<polygon class="st0" points="209.6,240.8 215.9,240.8 215.9,243.5 206.4,243.5 206.4,224.1 209.6,224.1 	"/>
	<path class="st0" d="M266.1,230.1c-2-1.5-3.6-2.1-5.8-2.1c-4.4,0-7.8,3.3-7.8,7.4c0,4.1,3.4,7.3,8,7.3c2,0,3.6-0.6,5.7-2.2v3.5
		c-1.9,1-3.7,1.4-5.7,1.4c-6.3,0-11.1-4.4-11.1-10.1c0-5.5,5.1-10.1,11.1-10.1c2.3,0,3.7,0.4,5.7,1.4V230.1z"/>
	<path class="st0" d="M288.9,235.8c2.9-0.6,4.7-2.7,4.7-5.5c0-1.8-1-3.6-2.6-4.6c-1.3-0.8-2.9-1.1-5.7-1.1h-3.8V244h3.2v-7.9h0.6
		l6.1,7.9h3.9L288.9,235.8z M284.9,233.6v-6.2h1.1c2.9,0,4.5,1,4.5,3c0,2.1-1.6,3.2-4.6,3.2H284.9z"/>
	<polygon class="st0" points="314.7,227.4 314.7,232 323,232 323,234.8 314.7,234.8 314.7,241.3 323.2,241.3 323.2,244 311.5,244 
		311.5,224.6 323.2,224.6 323.2,227.4 	"/>
	<path class="st0" d="M340.8,244h4.4c3.8,0,5.7-0.4,7.8-1.8c2.8-1.8,4.3-4.5,4.3-7.8c0-3.3-1.4-6.1-4.1-7.9
		c-2.1-1.4-4.2-1.9-7.9-1.9h-4.5V244z M344,241.3v-13.9h1.5c2.6,0,4.3,0.4,5.7,1.4c1.8,1.2,2.9,3.3,2.9,5.6c0,2.3-1.1,4.3-2.9,5.6
		c-1.5,1-3.1,1.4-5.7,1.4H344z"/>
	<rect x="373.1" y="224.1" class="st0" width="3.2" height="19.4"/>
	<polygon class="st0" points="401.7,244 398.5,244 398.5,227.4 393.6,227.4 393.6,224.6 406.6,224.6 406.6,227.4 401.7,227.4 	"/>
	<path class="st0" d="M442.5,236.8c0,1.7,0.2,2.6,0.7,3.4c0.8,1.2,2.3,2,4,2c1.7,0,3.2-0.8,4-2c0.5-0.8,0.7-1.6,0.7-3.4v-11.7h3.2
		v12.5c0,4.2-3.3,7.3-7.9,7.3c-4.5,0-7.9-3.1-7.9-7.3v-12.5h3.2V236.8z"/>
	<polygon class="st0" points="472.5,223.3 484.2,238.1 484.2,224.6 486.7,224.6 486.7,245.2 475,230.4 475,244 472.5,244 	"/>
	<polygon class="st0" points="559.9,222.8 571.6,237.6 571.6,224.1 574.1,224.1 574.1,244.7 562.4,229.9 562.4,243.5 559.9,243.5 	
		"/>
	<rect x="503.9" y="224.6" class="st0" width="3.2" height="19.4"/>
	<path class="st0" d="M533.9,224.3c-4.5,0-8.2,4.5-8.2,10.1c0,5.6,3.6,10,8.2,10c4.4,0,8.1-4.5,8.1-10.1
		C542,228.8,538.3,224.3,533.9,224.3 M533.9,227c3.3,0,5.7,3.2,5.7,7.4c0,4-2.6,7.3-5.7,7.3c-3.2,0-5.8-3.2-5.8-7.3
		C528.1,230.2,530.6,227,533.9,227"/>
	<polygon class="st0" points="384,122.8 391.1,82.4 407.1,82.4 409.8,107.6 421.4,82.4 437.4,82.4 430.3,122.8 418.4,122.8 
		420.5,110.5 421.8,104.2 423.8,96.9 423.7,96.9 411.7,122.8 402.5,122.8 399.7,96.9 399.6,96.9 399.1,102.9 398.3,109.1 
		395.9,122.8 	"/>
	<path class="st0" d="M402.1,136c-6.3-1.3-11.8-0.7-13.3-0.4c-2.8,0.7-2.7,1.5-3.1,2.9c-1.1,5.1,16,2.9,14.7,16.7
		c-0.9,9.5-8.5,11.7-15.4,12.1c-8.5,0.5-16.3-1.5-16.3-2.5l1.9-7.4c1.7,0.7,3,0.9,4.2,1.1c1.7,0.4,5.3,0.4,6.6,0.4
		c3.3,0,7.4-2,7.8-4c1.1-6.1-14.6-4.3-14.8-16.1c-0.1-6.4,7.1-12.3,17.3-12.1c8.6,0.2,12.3,1.5,12.3,1.5L402.1,136z"/>
	<path class="st0" d="M363.6,171.2l10.6,0.4l-5.3,24.6c-0.7,4,0.7,8.2,4.6,8c4.8-0.2,6.4-2.1,7.5-8l5.1-24.6l10.8-0.2l-3.4,23.5
		c-2.4,13.1-11.3,17.4-22.7,17.4c-7.6,0-14.2-8.3-12.5-17.4L363.6,171.2z"/>
	<polygon class="st0" points="435.7,122.3 439.7,96.1 447.3,96.1 443.2,122.3 	"/>
	<path class="st0" d="M472.6,102.2c0-0.7-8.7-1-11.3-0.4c-2.6,0.7-4.7,2.6-5.4,7.6c-0.6,3.7,1.7,6.7,3.4,7.1c2.3,0.5,7.5,1.4,10,0.1
		l0.2,5.5c-0.4,1.3-6.7,1.1-11,0.8c-4.9-0.4-11.4-5.3-10.1-13.8c1.3-8.5,7.9-14.3,14.3-14.3c7.1,0,10.8,1.7,10.8,1.7L472.6,102.2z"
		/>
	<polygon class="st0" points="472.8,122.3 476.9,96.1 484.4,96.1 483,104.9 490.2,104.9 491.5,96.1 499.1,96.1 495,122.3 
		487.5,122.3 489,112.1 481.9,112.1 480.3,122.3 	"/>
	<polygon class="st0" points="498.6,122.3 502.6,96.1 510.1,96.1 506.1,122.3 	"/>
	<path class="st0" d="M531.8,117.8c0,0-2.1,3.2-4.2,4.5c-1.2,0.8-4.2,0.8-7.6,0.6c-5.9-0.3-10.5-4.3-9.1-13.4
		c1.3-8.3,6.8-14.1,14.2-14.1c5.5,0,6.7,0.4,8.4,1.7l-0.9,5.3c-2.9-0.7-6.7-0.6-8.7-0.6c-3,0-4.9,3-5.6,7.7
		c-0.6,3.7-0.1,7.1,3.8,7.1c1.5,0,3.7-1.2,4.3-3h-3.3l0.9-5.7h10.3L531.8,117.8z"/>
	<path class="st0" d="M540.9,122l1.4-3.4l10,0.1l0.3,3.5h7.5l-4.2-26.2h-7.7L533.5,122H540.9z M551.6,111.9h-5.3l4.5-8.4
		L551.6,111.9z"/>
	<polygon class="st0" points="580.6,110.4 581.2,104.4 582.5,96.1 589.7,96.1 585.7,122.3 578.6,122.3 572.6,108 572,114 
		570.7,122.3 563.5,122.3 567.5,96.1 574.6,96.1 	"/>
	<polygon class="st0" points="413.6,199.8 414.2,193.8 415.4,185.5 422,185.5 418.3,211.7 411.8,211.7 406.3,197.4 405.7,203.4 
		404.5,211.7 397.9,211.7 401.6,185.5 408.1,185.5 	"/>
	<polygon class="st0" points="422.6,211.7 426.3,185.5 433.3,185.5 429.5,211.7 	"/>
	<polygon class="st0" points="436.2,185.5 443.2,185.5 444.5,203 450.8,185.5 457.8,185.5 446.7,211.7 439.7,211.7 	"/>
	<polygon class="st0" points="457,211.7 460.7,185.5 478,185.5 477.1,191.6 466.8,191.6 466.2,195.4 475,195.4 474.1,201.5 
		465.4,201.5 464.8,205.6 475.6,205.6 474.7,211.7 	"/>
	<path class="st0" d="M488.2,202.6c3.3,0,3.6,1.1,3.1,4.5c-0.3,2.3-0.4,4-0.3,4.6l9.4-0.1l0.1-0.8c-0.8,0-1.4-1-0.9-4.5
		c0.8-5.3-2.1-5.9-4.2-6.9c2.6-0.8,4-3.4,4.5-6.4c0.7-5.1-1.3-7.5-8.3-7.5h-10l-3.7,26.2h7l1.3-9.1H488.2z M487.6,191.6h3.3
		c1.6,0,2.7,0.9,2.4,2.7c-0.3,1.8-1.5,2.5-3.7,2.5h-2.7L487.6,191.6z"/>
	<path class="st0" d="M523.2,191.4c-0.9-0.8-5.5-1.4-6.6-1.6c-0.6-0.1-3.7-0.1-4.3,0.2c-1.3,0.6-2.5,1.8-2.5,2.7
		c0.1,4.1,13.1,1.4,11.7,10.9c-0.8,6.1-6.6,8.7-12.4,8.7c-5.6,0-7.5-1.2-7.5-1.2l0.8-5.3c0,0.9,7.3,0.5,8,0.5c1.7,0,3-0.7,3.2-1.9
		c0.6-4-12-1.2-10.6-11.2c0.8-5.6,5.1-8.4,10.4-8.4c5.9,0,10.8,1.2,10.8,1.2L523.2,191.4z"/>
	<polygon class="st0" points="522.4,211.7 526.2,185.5 533.1,185.5 529.4,211.7 	"/>
	<polygon class="st0" points="536.3,185.5 555.8,185.5 554.8,192.4 548.5,192.4 545.8,211.7 538.8,211.7 541.6,192.4 535.3,192.4 	
		"/>
	<polygon class="st0" points="568.8,211.8 561,212.1 562,202.1 556.5,185.4 564.5,185.5 567.6,195.7 574.6,186 583.4,186 
		570.7,202.1 	"/>
	<polygon class="st0" points="403.5,140 421,140 420.2,146.9 414.5,146.9 412,166.2 405.8,166.2 408.3,146.9 402.6,146.9 	"/>
	<path class="st0" d="M419.8,166.5l2.4-3.8l10.2,0.1l0.3,3.4h6.2l-3.5-26.2H429l-15.4,26.4H419.8z M432,156.4l-5.5-0.2l4.6-8.3
		L432,156.4z"/>
	<polygon class="st0" points="443.4,140 460.9,140 460,146.9 454.4,146.9 451.9,166.2 445.6,166.2 448.1,146.9 442.5,146.9 	"/>
	<polygon class="st0" points="460.4,166.2 463.8,140 479.3,140 478.6,146.2 469.2,146.2 468.7,149.9 476.6,149.9 475.9,156 468,156 
		467.4,160.1 477.1,160.1 476.3,166.2 	"/>
	<path class="st0" d="M580.9,204v-2.4h1.8c0.7,0,1.9-0.1,1.9,1.1c0,1-0.6,1.3-1.5,1.3H580.9z M583.9,205.3c1.4-0.1,2.1-0.7,2.1-2.4
		c0-2-1-2.6-3-2.6h-3.7v8.7h1.6v-3.7h1.3l1.7,3.7h1.9L583.9,205.3z M582.2,212.6c3.9,0,7.2-3.6,7.2-8c0-4.4-3.2-8-7.2-8
		c-4,0-7.1,3.6-7.1,8C575.1,209,578.2,212.6,582.2,212.6 M582.2,210.7c-3.1,0-5.3-2.5-5.3-6.1c0-3.6,2.1-6.1,5.3-6.1
		c3.1,0,5.3,2.5,5.3,6.1C587.5,208.1,585.3,210.7,582.2,210.7"/>
</g>
</svg>
